<svg xmlns="http://www.w3.org/2000/svg" stroke="#262626" class="ionicon" viewBox="0 0 50 50" width="50" height="50">
  <path fill="none" stroke-linejoin="round" stroke-width="3.125" d="M9.375 7.813h31.25a4.69 4.69 0 0 1 4.688 4.687v28.125a4.69 4.69 0 0 1-4.688 4.688H9.375a4.69 4.69 0 0 1-4.688-4.688V12.5a4.69 4.69 0 0 1 4.688-4.688z"/>
  <path fill="#00000000" d="M31.25 22.657A2.345 2.345 0 0 1 28.907 25a2.345 2.345 0 0 1-2.344-2.344 2.344 2.344 0 0 1 4.688 0m7.812.001A2.345 2.345 0 0 1 36.719 25a2.345 2.345 0 0 1-2.344-2.344 2.344 2.344 0 0 1 4.688 0m-7.813 7.813a2.345 2.345 0 0 1-2.344 2.344 2.345 2.345 0 0 1-2.344-2.344 2.344 2.344 0 0 1 4.688 0m7.813 0a2.345 2.345 0 0 1-2.344 2.344 2.345 2.345 0 0 1-2.344-2.344 2.344 2.344 0 0 1 4.688 0m-23.438 0a2.345 2.345 0 0 1-2.344 2.344 2.345 2.345 0 0 1-2.344-2.344 2.344 2.344 0 0 1 4.688 0m7.813 0a2.345 2.345 0 0 1-2.344 2.344 2.345 2.345 0 0 1-2.344-2.344 2.344 2.344 0 0 1 4.688 0m-7.813 7.813a2.345 2.345 0 0 1-2.344 2.344 2.345 2.345 0 0 1-2.344-2.344 2.344 2.344 0 0 1 4.688 0m7.813 0a2.345 2.345 0 0 1-2.344 2.344 2.345 2.345 0 0 1-2.344-2.344 2.344 2.344 0 0 1 4.688 0m7.812 0a2.345 2.345 0 0 1-2.344 2.344 2.345 2.345 0 0 1-2.344-2.344 2.344 2.344 0 0 1 4.688 0" />
  <path fill="none" stroke-linejoin="round" stroke-width="3.125" stroke-linecap="round" d="M12.5 4.688v3.125m25-3.125v3.125"/>
  <path fill="none" stroke-linejoin="round" stroke-width="3.125" d="M45.313 15.625H4.688"/>
</svg>