<svg width="800" height="800" viewBox="0 -0.08 103.51 103.51" xmlns="http://www.w3.org/2000/svg"><defs><clipPath id="a"><circle data-name="Ellipse 23" cx="51.203" cy="51.203" r="51.203" transform="translate(565.305 40.759)" fill="none"/></clipPath><clipPath id="b"><circle data-name="Ellipse 24" cx="51.203" cy="51.203" r="51.203" transform="translate(564.201 39.808)" fill="none"/></clipPath><clipPath id="c"><path data-name="Rectangle 7" d="M624.708 131.236h-16.4a2.49 2.49 0 0 1-2.488-2.488v-.255a10.69 10.69 0 0 1 10.688-10.688 10.69 10.69 0 0 1 10.688 10.688v.255a2.49 2.49 0 0 1-2.488 2.488" fill="none"/></clipPath></defs><g transform="translate(-564.201 -39.808)"><circle data-name="Ellipse 18" cx="51.203" cy="51.203" r="51.203" transform="translate(564.201 39.808)" fill="#5baed1"/><g data-name="Group 22"><g data-name="Group 21" fill="#312449"><circle data-name="Ellipse 19" cx="3.218" cy="3.218" r="3.218" transform="translate(595.555 95.472)"/><circle data-name="Ellipse 20" cx="3.218" cy="3.218" r="3.218" transform="translate(628.815 95.472)"/></g></g><circle data-name="Ellipse 21" cx=".594" cy=".594" r=".594" transform="translate(596.374 97.251)" fill="#fff"/><circle data-name="Ellipse 22" cx=".594" cy=".594" r=".594" transform="translate(629.634 97.251)" fill="#fff"/><g data-name="Group 24"><g data-name="Group 23" clip-path="url(#a)"><path data-name="Path 20" d="M609.125 41.291s4.239 12.461 1.53 16.691S604.147 68.258 598.072 69s-8.483-3.428-12.7.762-5.718 9.971-4.514 13.25a106 106 0 0 0 5.417 10.586s.6 7.785-.3 9.267-.3 3.8-8.427 6.527-24.076-3.522-24.076-3.522l-9.931-47.884 42.437-27.976Z" opacity=".2" style="mix-blend-mode:darken;isolation:isolate"/><path data-name="Path 21" d="M700.834 88.876s-11.357 6.653-16.043 4.849-11.374-4.314-13.316-10.117 1.656-9-3.294-12.285-10.916-3.6-13.886-1.764a106 106 0 0 0-9.284 7.431s-7.506 2.152-9.139 1.565-3.782.47-8.086-6.945-5.015-45.81-5.015-45.81l48.552 2.183 35.918 35.957Z" opacity=".2" style="mix-blend-mode:darken;isolation:isolate"/><path data-name="Path 22" d="M608.05 95.624c-1.141-1.394-1.834-5.168-1.383-7.07s1.075-4.62 2.6-5.153 2.4 1.159 3.239-.78a8.85 8.85 0 0 0 .384-5.818c-.505-1.357-2.027-4.325-2.027-4.325a23.5 23.5 0 0 1-.471-3.967 3.54 3.54 0 0 1 1.794-3.088c1.942-1.456 6.438.64 6.438.64s6.289 14.962 5.4 20.085c-.7 4.034-5.273 12.87-9.324 13.462-1.913.28-5.421-2.486-6.65-3.986" opacity=".2" style="mix-blend-mode:darken;isolation:isolate"/></g></g><g data-name="Group 26"><g data-name="Group 25" clip-path="url(#b)" fill="#9ed32b"><path data-name="Path 23" d="M608.021 40.339s4.239 12.461 1.53 16.691-6.508 10.277-12.583 11.015-8.483-3.429-12.7.761-5.718 9.971-4.514 13.25a107 107 0 0 0 5.417 10.586s.6 7.785-.3 9.267-.3 3.8-8.427 6.527-24.075-3.522-24.075-3.522L542.44 57.03l42.434-27.972Z"/><path data-name="Path 24" d="M699.73 87.924s-11.356 6.654-16.043 4.849-11.374-4.314-13.316-10.117 1.656-9-3.294-12.285-10.916-3.6-13.886-1.764a107 107 0 0 0-9.284 7.431s-7.507 2.152-9.139 1.562-3.782.47-8.085-6.945-5.016-45.814-5.016-45.814l48.552 2.183 35.919 35.957Z"/><path data-name="Path 25" d="M606.946 94.672c-1.141-1.394-1.834-5.168-1.383-7.07s1.076-4.62 2.6-5.153 2.4 1.159 3.239-.78a8.86 8.86 0 0 0 .385-5.818c-.506-1.357-2.028-4.325-2.028-4.325a23.5 23.5 0 0 1-.47-3.967 3.54 3.54 0 0 1 1.794-3.088c1.941-1.456 6.437.64 6.437.64s6.289 14.962 5.4 20.085c-.7 4.034-5.273 12.87-9.324 13.462-1.913.28-5.421-2.486-6.65-3.986"/><path data-name="Path 26" d="M655.135 120.376c1.977 1.545 4.03 7.175 1.95 9.845s-4.994 6.484-10.015 7.268-7.192-1.559-10.524 1.173-4.349 6.258-3.215 8.14a60 60 0 0 0 4.933 5.992s.817 4.6.126 5.532-.094 2.277-6.74 4.362-38.325.056-38.325.056l7.965-28.716s24.531-17.272 34.142-19.052c5.022-.929 15.678 2.256 19.703 5.4"/></g></g><path data-name="Path 27" d="M615.4 142.213a51.2 51.2 0 0 0 34.33-89.19 51 51 0 0 1 13.215 34.33c0 28.279-26.649 54.332-54.928 54.332" opacity=".2" style="mix-blend-mode:darken;isolation:isolate"/><path data-name="Path 28" d="M598.286 49.618a9.27 9.27 0 0 0-7.513 1.693c-3.991 2.765-2.809 4.967-1.4 5.7s4.582.225 5.8.62 1.868.171 3.725-.62-.657-2.058.895-3.569 3.03-2.057 1.552-3.053a4.76 4.76 0 0 0-3.059-.771" fill="#5baed1"/><path data-name="Path 29" d="M591.331 51.838a9.27 9.27 0 0 1 7.513-1.693 4.76 4.76 0 0 1 3.057.771l.018.014a1.55 1.55 0 0 0-.545-.541 4.76 4.76 0 0 0-3.056-.771 9.27 9.27 0 0 0-7.513 1.693c-3.629 2.514-2.979 4.558-1.776 5.46-.774-1.052-.736-2.829 2.302-4.933" opacity=".2" style="mix-blend-mode:darken;isolation:isolate"/><g data-name="Group 29"><path data-name="Rectangle 6" d="M624.708 131.236h-16.4a2.49 2.49 0 0 1-2.488-2.488v-.255a10.69 10.69 0 0 1 10.688-10.688 10.69 10.69 0 0 1 10.688 10.688v.255a2.49 2.49 0 0 1-2.488 2.488" fill="#312449"/><path data-name="Path 30" d="M616.507 117.806c-.327 0-.65.02-.97.049a10.685 10.685 0 0 1 9.718 10.639v.255a2.49 2.49 0 0 1-2.488 2.488h1.94a2.49 2.49 0 0 0 2.488-2.488v-.255a10.69 10.69 0 0 0-10.688-10.688" opacity=".2" style="mix-blend-mode:darken;isolation:isolate"/><g data-name="Group 28"><g data-name="Group 27" clip-path="url(#c)"><ellipse data-name="Ellipse 25" cx="7.16" cy="4.646" rx="7.16" ry="4.646" transform="translate(609.347 128.4)" fill="#fd1a16"/></g></g></g></g></svg>