<svg version="1.1" id="Layer_1" xmlns="http://www.w3.org/2000/svg" x="0" y="0" viewBox="0 0 24 16.695" xml:space="preserve" width="24" height="16.695"><style>.st2{fill:#fff}.st3{fill:#008}</style><path d="M1.31 0h21.379A1.32 1.32 0 0 1 24 1.319v14.059a1.323 1.323 0 0 1-1.319 1.319H1.31A1.323 1.323 0 0 1 0 15.377V1.319A1.32 1.32 0 0 1 1.31 0" style="fill:#f93"/><path class="st2" d="M0 5.565h24v5.566H0z"/><path d="M0 11.131h24v4.246a1.323 1.323 0 0 1-1.319 1.319H1.31A1.32 1.32 0 0 1 0 15.377z" style="fill:#128807"/><path class="st3" d="M14.227 8.348c0-1.231-.996-2.227-2.227-2.227s-2.227.996-2.227 2.227a2.227 2.227 0 0 0 4.453 0"/><path class="st2" d="M13.947 8.348a1.946 1.946 0 1 0-3.894 0 1.946 1.946 0 1 0 3.894 0"/><path class="st3" d="M12.389 8.348a.389.389 0 1 0-.778 0 .389.389 0 1 0 .778 0m1.639.267a.1.1 0 0 0-.084-.109c-.053-.008-.102.031-.109.084s.031.102.084.109a.097.097 0 0 0 .109-.084"/><path class="st3" d="m12 10.295.066-1.168L12 8.57l-.066.557z"/><path d="M13.889 9.131a.097.097 0 1 0-.18-.074.097.097 0 1 0 .18.074m-2.393 1.098.367-1.111.08-.555-.209.521zm2.127-.635a.096.096 0 0 0-.018-.137.096.096 0 0 0-.137.018c-.033.043-.025.104.018.137s.104.024.137-.018m-2.598.442.643-.979.221-.516-.336.447zm2.219-.064a.096.096 0 0 0 .018-.137.096.096 0 0 0-.137-.018.096.096 0 0 0-.018.137c.033.041.096.051.137.018m-2.621-.246.873-.779.346-.439-.439.346zm2.16.514a.1.1 0 0 0 .053-.127.097.097 0 1 0-.053.127m-2.471-.916 1.047-.528.447-.336-.516.221zm1.955 1.053a.1.1 0 0 0 .084-.109.1.1 0 0 0-.109-.084.1.1 0 0 0-.084.109.096.096 0 0 0 .109.084m-2.148-1.524 1.147-.238.519-.207-.555.078zm1.613 1.524a.1.1 0 0 0 .109-.084.1.1 0 0 0-.084-.109.097.097 0 1 0-.025.193m-1.68-2.028 1.168.066.557-.066-.557-.066zm1.164 1.891a.097.097 0 1 0 .074-.18.096.096 0 0 0-.127.053.1.1 0 0 0 .053.127m-1.098-2.395 1.111.367.555.08-.519-.209zm.635 2.127c.043.033.104.025.137-.018s.025-.104-.018-.137a.096.096 0 0 0-.137.018.1.1 0 0 0 .018.137m-.442-2.598.979.643.516.221-.447-.336zm.064 2.221c.033.043.094.051.137.018s.051-.094.018-.137a.096.096 0 0 0-.137-.018.1.1 0 0 0-.018.137m.246-2.623.779.873.439.348-.346-.442zm-.514 2.16a.1.1 0 0 0 .127.053.1.1 0 0 0 .053-.127.1.1 0 0 0-.127-.053.1.1 0 0 0-.053.127m.916-2.471.528 1.047.336.447-.221-.514zM9.97 8.616a.1.1 0 0 0 .109.084.1.1 0 0 0 .084-.109.1.1 0 0 0-.109-.084.096.096 0 0 0-.084.109m1.524-2.148.238 1.147.209.519-.08-.555zM9.97 8.081c-.008.053.031.102.084.109s.102-.031.109-.084a.097.097 0 1 0-.193-.025m2.028-1.68-.066 1.168.066.557.066-.557zm-1.889 1.164a.097.097 0 1 0 .18.074.097.097 0 1 0-.18-.074m2.393-1.098-.367 1.111-.08.555.209-.519zm-2.127.637c-.033.043-.025.104.018.137s.104.025.137-.018.025-.104-.018-.137a.096.096 0 0 0-.137.018m2.598-.444-.642.982-.221.514.336-.447zm-2.219.064c-.043.033-.051.094-.018.137s.094.051.137.018.051-.094.018-.137-.096-.049-.137-.018m2.621.246-.873.779-.346.442.439-.348zm-2.16-.512a.1.1 0 0 0-.053.127.1.1 0 0 0 .127.053.1.1 0 0 0 .053-.127.095.095 0 0 0-.127-.053m2.471.914-1.047.528-.447.336.516-.221zm-1.955-1.053a.1.1 0 0 0-.084.109.1.1 0 0 0 .109.084.1.1 0 0 0 .084-.109.096.096 0 0 0-.109-.084m2.148 1.524-1.147.238-.519.209.555-.08zm-1.613-1.524a.1.1 0 0 0-.109.084c-.008.053.031.102.084.109s.102-.031.109-.084a.1.1 0 0 0-.084-.109m1.68 2.028-1.168-.066-.557.066.557.066zm-1.164-1.889a.097.097 0 1 0-.074.179.097.097 0 0 0 .074-.179m1.098 2.393-1.111-.367-.555-.078.519.207zm-.637-2.127a.096.096 0 0 0-.137.018c-.033.043-.025.104.018.137s.104.025.137-.018.025-.104-.018-.137m.444 2.598-.979-.643-.516-.221.447.336zm-.064-2.219c-.033-.043-.094-.051-.137-.018s-.051.094-.018.137.094.051.137.018c.041-.033.051-.096.018-.137m-.246 2.621-.779-.873-.439-.346.346.439zm.514-2.16c-.022-.049-.078-.074-.127-.053s-.074.078-.053.127.078.072.127.053.072-.076.053-.127m-.917 2.473-.528-1.047-.336-.447.221.516zm1.053-1.955a.1.1 0 0 0-.109-.084.1.1 0 0 0-.084.109.1.1 0 0 0 .109.084.096.096 0 0 0 .084-.109m-1.524 2.148-.238-1.144-.209-.521.08.555z"/></svg>