<svg width="100" height="100" viewBox="0 0 4 4" fill="none" xmlns="http://www.w3.org/2000/svg"><path d="M2.335 1.997A.33.33 0 0 0 2 1.672a.33.33 0 0 0-.335.325c0 .179.15.325.335.325a.33.33 0 0 0 .335-.325" fill="#53C1DE"/><path fill-rule="evenodd" clip-rule="evenodd" d="M3.087 1.394c.071-.279.16-.795-.154-.971-.312-.174-.718.16-.932.36C1.787.584 1.37.252 1.057.427s-.216.683-.143.964c-.291.08-.789.253-.789.605 0 .351.498.539.787.619-.072.282-.164.783.148.957.314.176.73-.149.947-.352.216.202.618.529.93.354s.232-.685.159-.968c.28-.08.779-.264.779-.611 0-.349-.501-.523-.787-.603m-.035 1.064a4 4 0 0 0-.19-.461 4 4 0 0 0 .182-.454c.21.059.67.194.67.453 0 .262-.442.398-.663.461m-.196.982c-.233.131-.579-.182-.738-.331a4 4 0 0 0 .314-.387 4 4 0 0 0 .508-.076c.051.199.149.662-.085.793m-1.716-.002c-.233-.13-.126-.577-.073-.785a4 4 0 0 0 .505.071 4 4 0 0 0 .322.386c-.135.127-.52.459-.754.328M.285 1.997c0-.263.458-.397.672-.455a4 4 0 0 0 .183.459 4 4 0 0 0-.185.466C.75 2.41.285 2.26.285 1.998M1.138.563c.234-.131.596.188.751.332a4 4 0 0 0-.32.383 4 4 0 0 0-.5.075c-.058-.226-.165-.66.068-.791m1.409.884q.18.022.342.058a3 3 0 0 1-.12.313 5 5 0 0 0-.222-.371M2 1.005a3 3 0 0 1 .221.258 5 5 0 0 0-.443 0 4 4 0 0 1 .223-.258m-.77.812a3 3 0 0 1-.119-.315 4 4 0 0 1 .34-.057 5 5 0 0 0-.221.371m.224.74a4 4 0 0 1-.345-.054q.05-.156.121-.321a5 5 0 0 0 .224.375m.55.441a4 4 0 0 1-.226-.262q.223.009.446-.001a3 3 0 0 1-.22.263m.765-.821a3 3 0 0 1 .126.32 4 4 0 0 1-.35.058 5 5 0 0 0 .224-.378m-.427.397a5 5 0 0 1-.683.001 4.4 4.4 0 0 1-.343-.575 4.4 4.4 0 0 1 .341-.574 5 5 0 0 1 .684 0 5 5 0 0 1 .342.572 5 5 0 0 1-.341.576M2.854.558c.234.131.13.595.079.797a4 4 0 0 0-.501-.077 4 4 0 0 0-.317-.384c.157-.147.508-.466.74-.337" fill="#53C1DE"/></svg>